<svg xmlns="http://www.w3.org/2000/svg" width="362" height="181" viewBox="0 0 362 181" version="1.1">
    <defs>
        <radialGradient id="gradientRouge" cx="50%" cy="50%" r="50%">
            <stop offset="0%" style="stop-color:#FFD700;stop-opacity:1" />
            <stop offset="50%" style="stop-color:#FFA500;stop-opacity:1" />
            <stop offset="100%" style="stop-color:#f73704;stop-opacity:1" />
        </radialGradient>
    </defs>
    <path
        d="M 301.140 39.250 C 297.794 41.587, 289.076 47.642, 281.767 52.704 C 274.457 57.766, 264.208 65.079, 258.990 68.955 C 253.772 72.830, 249.053 75.855, 248.502 75.676 C 247.951 75.497, 247.111 73.135, 246.635 70.426 C 245.127 61.832, 241.791 52.061, 238.707 47.203 L 235.722 42.500 233.611 45.381 C 229.960 50.364, 216 67.188, 209.034 75 C 201.375 83.589, 194.395 92.356, 193.729 94.223 C 192.688 97.143, 191.626 93.428, 190.951 84.504 C 190.162 74.060, 188.675 70.637, 184.470 69.582 C 178.013 67.961, 172.364 75.233, 169.528 88.815 C 167.760 97.281, 167.509 116.692, 169.094 122.400 C 169.824 125.030, 169.853 126.985, 169.182 128.400 C 166.748 133.532, 165.098 139, 165.981 139 C 166.512 139, 168.988 138.008, 171.483 136.796 C 175.479 134.854, 176.196 134.767, 177.493 136.065 C 178.672 137.243, 178.758 138.293, 177.923 141.316 C 176.698 145.753, 177.043 151.196, 178.581 151.700 C 180.608 152.364, 184.964 147.889, 188.571 141.439 C 190.552 137.898, 192.583 135, 193.086 135 C 193.589 135, 194 136.589, 194 138.532 C 194 142.611, 195.964 147.821, 198.433 150.290 C 199.472 151.329, 201.700 152, 204.114 152 C 207.465 152, 208.869 151.268, 213.097 147.313 C 216.667 143.974, 218.442 141.376, 219.270 138.281 C 220.841 132.408, 223.011 132.996, 224.521 139.704 C 227.533 153.078, 236.758 156.785, 245.130 147.984 C 249.826 143.048, 251.568 138.069, 250.087 133.821 C 247.727 127.049, 249.730 126.063, 254.936 131.434 C 259.350 135.988, 266.651 139.003, 274.948 139.699 C 288.296 140.818, 299.931 136.212, 310.612 125.580 C 329.522 106.756, 334.481 76.236, 322.645 51.529 C 318.857 43.624, 311.753 35, 309.027 35 C 308.035 35, 304.486 36.913, 301.140 39.250 M 46.993 48.204 C 43.968 52.511, 41.130 58.054, 39.935 61.988 C 36.145 74.466, 35.717 95.720, 39.007 108.076 C 42.100 119.690, 52.865 134.335, 61.226 138.303 C 67.839 141.441, 76.757 140.126, 83.192 135.064 C 84.673 133.899, 87.293 130.483, 89.015 127.473 C 93.594 119.471, 94.170 119.910, 95.979 132.786 C 97.270 141.975, 98.913 145.908, 102.840 149.212 C 106.752 152.503, 111.032 153.474, 115.349 152.050 C 119.614 150.642, 122.354 147.714, 124.998 141.738 C 126.151 139.132, 127.635 137.001, 128.297 137.003 C 128.959 137.004, 130.400 138.654, 131.500 140.669 C 136.168 149.218, 140.304 147.192, 140.449 136.285 C 140.574 126.868, 141.291 126.127, 146.087 130.460 C 152.072 135.867, 156.489 134.665, 155.822 127.811 C 155.630 125.835, 155.935 124.578, 156.578 124.693 C 158.379 125.015, 157.575 94.702, 155.592 87.500 C 153.046 78.256, 149.248 71.180, 145.905 69.451 C 143.134 68.018, 142.842 68.067, 140.567 70.342 C 139.076 71.833, 137.896 74.509, 137.467 77.374 C 137.085 79.918, 136.327 82, 135.783 82 C 134.621 82, 125.413 73.329, 112.454 60.033 C 104.677 52.054, 102.991 50.763, 101.723 51.815 C 99.209 53.901, 95.806 63.050, 95.246 69.226 C 94.955 72.433, 94.307 75.310, 93.806 75.620 C 91.903 76.796, 81.801 70.625, 74.565 63.867 C 70.424 60, 64.064 53.272, 60.431 48.918 C 56.799 44.563, 53.428 41, 52.940 41 C 52.452 41, 49.775 44.242, 46.993 48.204 M 262.599 84.179 C 257.855 88.873, 257.663 88.959, 256.599 86.876 C 255.145 84.029, 253.484 84.370, 253.563 87.500 C 253.597 88.875, 253.709 93.375, 253.813 97.500 C 253.960 103.417, 254.317 105, 255.500 105 C 256.633 105, 257 103.778, 257 100 C 257 97.250, 257.453 95, 258.007 95 C 258.560 95, 261.702 97.731, 264.989 101.070 C 268.276 104.408, 271.424 106.856, 271.985 106.509 C 273.562 105.534, 271.331 102.146, 265.294 96.345 L 259.923 91.184 264.961 86.935 C 267.733 84.599, 270 81.857, 270 80.843 C 270 77.975, 267.924 78.911, 262.599 84.179 M 274.845 81.621 C 271.251 83.113, 271.177 83.258, 270.488 90.122 C 269.894 96.031, 270.058 97.406, 271.548 99.053 C 273.680 101.409, 275.812 101.520, 278.794 99.432 C 281.707 97.391, 280.725 95.905, 276.961 96.658 C 274.451 97.160, 274 96.938, 274 95.203 C 274 93.749, 275.016 92.820, 277.500 92 C 279.477 91.348, 281 90.177, 281 89.311 C 281 88.100, 280.264 87.915, 277.500 88.434 C 272.147 89.438, 272.868 86.414, 278.564 83.973 C 281.074 82.897, 282.848 81.563, 282.505 81.008 C 281.650 79.625, 279.176 79.822, 274.845 81.621 M 287.008 80.974 C 285.820 81.725, 285.770 82.170, 286.758 83.158 C 287.502 83.902, 288 87.106, 288 91.141 C 288 97.796, 289.320 100.649, 291.117 97.878 C 291.609 97.120, 291.718 93.389, 291.360 89.587 C 290.769 83.304, 290.867 82.735, 292.437 83.337 C 293.386 83.702, 294.791 84, 295.559 84 C 296.326 84, 297.680 85.108, 298.567 86.462 C 299.921 88.529, 299.989 89.505, 298.987 92.539 C 297.472 97.130, 292.936 99.991, 287.167 99.996 C 281.136 100.001, 282.164 102.403, 288.369 102.806 C 291.790 103.029, 294 102.545, 296.434 101.041 C 301.891 97.668, 304.561 89.786, 301.920 84.850 C 299.902 81.080, 290.646 78.674, 287.008 80.974 M 229.690 92.750 C 229.455 93.162, 228.688 95.300, 227.987 97.500 C 226.372 102.561, 221.867 109.202, 218.592 111.348 C 217.205 112.257, 214.499 113, 212.578 113 C 209.785 113, 208.526 112.299, 206.293 109.500 C 203.125 105.530, 201.423 105.093, 200.497 108.011 C 199.673 110.605, 194.624 113.207, 191.184 112.810 C 189.264 112.588, 188.093 111.575, 187.070 109.250 C 186.283 107.463, 185.045 106, 184.320 106 C 182.154 106, 182.820 109.632, 185.589 112.923 C 188.912 116.872, 194.075 117.117, 199.298 113.572 C 202.426 111.450, 203.031 111.333, 204.115 112.638 C 208.253 117.624, 215.676 118.010, 221.533 113.543 C 226.471 109.776, 234.397 92, 231.138 92 C 230.577 92, 229.926 92.338, 229.690 92.750 M 138.356 95.750 C 137.981 97.263, 136.606 100.123, 135.299 102.107 C 131.690 107.587, 126 109.342, 126 104.976 C 126 101.891, 123.909 101.587, 121.639 104.341 C 117.109 109.838, 109.192 110.095, 102.122 104.974 C 99.948 103.399, 97.876 101.186, 97.518 100.055 C 96.954 98.280, 94 97.016, 94 98.550 C 94 100.019, 97.126 104.788, 99.661 107.186 C 105.066 112.301, 113.651 113.545, 120.008 110.136 C 123.061 108.498, 123.746 108.443, 125.636 109.681 C 129.927 112.493, 135.601 108.809, 139.935 100.396 C 141.914 96.556, 141.903 93, 139.912 93 C 139.431 93, 138.731 94.237, 138.356 95.750 M 102 119.420 C 102 121.674, 111.611 124.331, 119.494 124.256 C 127.479 124.180, 132 122.793, 132 120.418 C 132 119.234, 131.520 119, 130.250 119.564 C 126.513 121.225, 112.178 121.249, 107.344 119.602 C 101.669 117.668, 102 117.679, 102 119.420 M 217.876 121.003 C 213.337 123.402, 202.694 124.562, 197.748 123.196 C 193.378 121.989, 191.572 123.451, 194.597 125.748 C 197.599 128.028, 213.011 126.779, 218.829 123.785 C 223.288 121.490, 225.427 118.958, 222.833 119.044 C 222.100 119.069, 219.869 119.950, 217.876 121.003"
        stroke="none" fill="url(#gradientRouge)" fill-rule="evenodd" />

    <path
        d="M 262.599 84.179 C 257.855 88.873, 257.663 88.959, 256.599 86.876 C 255.145 84.029, 253.484 84.370, 253.563 87.500 C 253.597 88.875, 253.709 93.375, 253.813 97.500 C 253.960 103.417, 254.317 105, 255.500 105 C 256.633 105, 257 103.778, 257 100 C 257 97.250, 257.453 95, 258.007 95 C 258.560 95, 261.702 97.731, 264.989 101.070 C 268.276 104.408, 271.424 106.856, 271.985 106.509 C 273.562 105.534, 271.331 102.146, 265.294 96.345 L 259.923 91.184 264.961 86.935 C 267.733 84.599, 270 81.857, 270 80.843 C 270 77.975, 267.924 78.911, 262.599 84.179 M 274.845 81.621 C 271.251 83.113, 271.177 83.258, 270.488 90.122 C 269.894 96.031, 270.058 97.406, 271.548 99.053 C 273.680 101.409, 275.812 101.520, 278.794 99.432 C 281.707 97.391, 280.725 95.905, 276.961 96.658 C 274.451 97.160, 274 96.938, 274 95.203 C 274 93.749, 275.016 92.820, 277.500 92 C 279.477 91.348, 281 90.177, 281 89.311 C 281 88.100, 280.264 87.915, 277.500 88.434 C 272.147 89.438, 272.868 86.414, 278.564 83.973 C 281.074 82.897, 282.848 81.563, 282.505 81.008 C 281.650 79.625, 279.176 79.822, 274.845 81.621 M 287.008 80.974 C 285.820 81.725, 285.770 82.170, 286.758 83.158 C 287.502 83.902, 288 87.106, 288 91.141 C 288 97.796, 289.320 100.649, 291.117 97.878 C 291.609 97.120, 291.718 93.389, 291.360 89.587 C 290.769 83.304, 290.867 82.735, 292.437 83.337 C 293.386 83.702, 294.791 84, 295.559 84 C 296.326 84, 297.680 85.108, 298.567 86.462 C 299.921 88.529, 299.989 89.505, 298.987 92.539 C 297.472 97.130, 292.936 99.991, 287.167 99.996 C 281.136 100.001, 282.164 102.403, 288.369 102.806 C 291.790 103.029, 294 102.545, 296.434 101.041 C 301.891 97.668, 304.561 89.786, 301.920 84.850 C 299.902 81.080, 290.646 78.674, 287.008 80.974 M 229.690 92.750 C 229.455 93.162, 228.688 95.300, 227.987 97.500 C 226.372 102.561, 221.867 109.202, 218.592 111.348 C 217.205 112.257, 214.499 113, 212.578 113 C 209.785 113, 208.526 112.299, 206.293 109.500 C 203.125 105.530, 201.423 105.093, 200.497 108.011 C 199.673 110.605, 194.624 113.207, 191.184 112.810 C 189.264 112.588, 188.093 111.575, 187.070 109.250 C 186.283 107.463, 185.045 106, 184.320 106 C 182.154 106, 182.820 109.632, 185.589 112.923 C 188.912 116.872, 194.075 117.117, 199.298 113.572 C 202.426 111.450, 203.031 111.333, 204.115 112.638 C 208.253 117.624, 215.676 118.010, 221.533 113.543 C 226.471 109.776, 234.397 92, 231.138 92 C 230.577 92, 229.926 92.338, 229.690 92.750 M 138.356 95.750 C 137.981 97.263, 136.606 100.123, 135.299 102.107 C 131.690 107.587, 126 109.342, 126 104.976 C 126 101.891, 123.909 101.587, 121.639 104.341 C 117.109 109.838, 109.192 110.095, 102.122 104.974 C 99.948 103.399, 97.876 101.186, 97.518 100.055 C 96.954 98.280, 94 97.016, 94 98.550 C 94 100.019, 97.126 104.788, 99.661 107.186 C 105.066 112.301, 113.651 113.545, 120.008 110.136 C 123.061 108.498, 123.746 108.443, 125.636 109.681 C 129.927 112.493, 135.601 108.809, 139.935 100.396 C 141.914 96.556, 141.903 93, 139.912 93 C 139.431 93, 138.731 94.237, 138.356 95.750 M 102 119.420 C 102 121.674, 111.611 124.331, 119.494 124.256 C 127.479 124.180, 132 122.793, 132 120.418 C 132 119.234, 131.520 119, 130.250 119.564 C 126.513 121.225, 112.178 121.249, 107.344 119.602 C 101.669 117.668, 102 117.679, 102 119.420 M 217.876 121.003 C 213.337 123.402, 202.694 124.562, 197.748 123.196 C 193.378 121.989, 191.572 123.451, 194.597 125.748 C 197.599 128.028, 213.011 126.779, 218.829 123.785 C 223.288 121.490, 225.427 118.958, 222.833 119.044 C 222.100 119.069, 219.869 119.950, 217.876 121.003"
        stroke="none" fill="#FFD700" fill-rule="evenodd"
        transform="translate(0, 2)" opacity="1" />
    <path
        d="M 307 30.801 C 307 31.241, 304.879 32.632, 302.287 33.891 C 297.581 36.177, 281.070 47.424, 260.750 62.183 C 250.212 69.838, 249.999 69.937, 249.942 67.246 C 249.745 57.859, 241.850 40.502, 237.251 39.348 C 234.238 38.592, 233.595 39.189, 219.848 55.500 C 213.359 63.200, 205.350 72.547, 202.049 76.271 C 196.113 82.969, 196.042 83.012, 195.479 80.271 C 193.902 72.605, 192.715 69.938, 189.777 67.466 C 187.009 65.137, 185.937 64.848, 181.611 65.263 C 177.384 65.670, 176.066 66.348, 172.893 69.749 C 165.635 77.530, 161.754 97.632, 163.776 116.969 C 164.852 127.261, 164.792 128.453, 162.969 133.079 C 160.592 139.109, 160.501 141.341, 162.561 143.050 C 163.856 144.125, 164.958 143.992, 169.035 142.270 L 173.949 140.194 173.348 145.940 C 172.811 151.079, 172.993 151.915, 175.062 153.844 C 178.549 157.092, 180.890 156.496, 186.175 151.012 L 190.983 146.024 192.431 149.490 C 194.134 153.565, 199.228 156.991, 203.593 156.996 C 208.070 157.002, 215.023 152.971, 218.595 148.300 L 221.689 144.252 222.902 147.607 C 224.574 152.231, 229.412 156.799, 233.437 157.554 C 237.621 158.339, 244.339 155.499, 248.306 151.267 C 249.849 149.621, 252.120 145.794, 253.352 142.762 L 255.592 137.251 257.895 139.116 C 263.531 143.680, 279.961 145.456, 290.500 142.641 C 309.838 137.475, 325.112 120.771, 331.189 98.144 C 334.126 87.209, 334.126 72.057, 331.190 61.701 C 327.472 48.587, 320.999 37.663, 313.795 32.348 C 310.678 30.049, 307 29.211, 307 30.801 M 301.140 39.250 C 297.794 41.587, 289.076 47.642, 281.767 52.704 C 274.457 57.766, 264.208 65.079, 258.990 68.955 C 253.772 72.830, 249.053 75.855, 248.502 75.676 C 247.951 75.497, 247.111 73.135, 246.635 70.426 C 245.127 61.832, 241.791 52.061, 238.707 47.203 L 235.722 42.500 233.611 45.381 C 229.960 50.364, 216 67.188, 209.034 75 C 201.375 83.589, 194.395 92.356, 193.729 94.223 C 192.688 97.143, 191.626 93.428, 190.951 84.504 C 190.162 74.060, 188.675 70.637, 184.470 69.582 C 178.013 67.961, 172.364 75.233, 169.528 88.815 C 167.760 97.281, 167.509 116.692, 169.094 122.400 C 169.824 125.030, 169.853 126.985, 169.182 128.400 C 166.748 133.532, 165.098 139, 165.981 139 C 166.512 139, 168.988 138.008, 171.483 136.796 C 175.479 134.854, 176.196 134.767, 177.493 136.065 C 178.672 137.243, 178.758 138.293, 177.923 141.316 C 176.698 145.753, 177.043 151.196, 178.581 151.700 C 180.608 152.364, 184.964 147.889, 188.571 141.439 C 190.552 137.898, 192.583 135, 193.086 135 C 193.589 135, 194 136.589, 194 138.532 C 194 142.611, 195.964 147.821, 198.433 150.290 C 199.472 151.329, 201.700 152, 204.114 152 C 207.465 152, 208.869 151.268, 213.097 147.313 C 216.667 143.974, 218.442 141.376, 219.270 138.281 C 220.841 132.408, 223.011 132.996, 224.521 139.704 C 227.533 153.078, 236.758 156.785, 245.130 147.984 C 249.826 143.048, 251.568 138.069, 250.087 133.821 C 247.727 127.049, 249.730 126.063, 254.936 131.434 C 259.350 135.988, 266.651 139.003, 274.948 139.699 C 288.296 140.818, 299.931 136.212, 310.612 125.580 C 329.522 106.756, 334.481 76.236, 322.645 51.529 C 318.857 43.624, 311.753 35, 309.027 35 C 308.035 35, 304.486 36.913, 301.140 39.250 M 46.521 41.423 C 37.617 50.984, 33.265 63.575, 32.319 82.504 C 31.220 104.503, 36.903 121.828, 49.339 134.387 C 57.107 142.232, 61.632 144.492, 69.578 144.496 C 74.601 144.499, 76.506 143.975, 80.544 141.479 C 83.232 139.817, 86.852 136.594, 88.588 134.318 L 91.746 130.178 92.386 135.628 C 94.101 150.221, 105.272 159.706, 116.413 156.029 C 120.083 154.818, 126.348 148.629, 127.464 145.113 C 128.109 143.080, 128.222 143.110, 130.611 145.949 C 136.942 153.474, 144 149.309, 144 138.047 L 144 134.029 147.250 136.011 C 153.457 139.795, 157.504 137.801, 160.009 129.722 C 162.122 122.911, 161.527 96.371, 159.044 86.669 C 155.400 72.427, 149.587 64.594, 142.806 64.786 C 139.205 64.889, 135 68.715, 135 71.889 C 135 72.867, 134.684 73.983, 134.298 74.369 C 133.912 74.755, 126.978 68.465, 118.890 60.390 L 104.184 45.709 100.886 47.635 C 96.889 49.969, 93.244 56.695, 92.119 63.811 C 91.664 66.687, 91.011 69.323, 90.666 69.667 C 89.275 71.058, 80.784 64.011, 68 50.855 C 59.741 42.356, 53.751 36.969, 52.570 36.981 C 51.508 36.991, 48.786 38.991, 46.521 41.423 M 46.993 48.204 C 43.968 52.511, 41.130 58.054, 39.935 61.988 C 36.145 74.466, 35.717 95.720, 39.007 108.076 C 42.100 119.690, 52.865 134.335, 61.226 138.303 C 67.839 141.441, 76.757 140.126, 83.192 135.064 C 84.673 133.899, 87.293 130.483, 89.015 127.473 C 93.594 119.471, 94.170 119.910, 95.979 132.786 C 97.270 141.975, 98.913 145.908, 102.840 149.212 C 106.752 152.503, 111.032 153.474, 115.349 152.050 C 119.614 150.642, 122.354 147.714, 124.998 141.738 C 126.151 139.132, 127.635 137.001, 128.297 137.003 C 128.959 137.004, 130.400 138.654, 131.500 140.669 C 136.168 149.218, 140.304 147.192, 140.449 136.285 C 140.574 126.868, 141.291 126.127, 146.087 130.460 C 152.072 135.867, 156.489 134.665, 155.822 127.811 C 155.630 125.835, 155.935 124.578, 156.578 124.693 C 158.379 125.015, 157.575 94.702, 155.592 87.500 C 153.046 78.256, 149.248 71.180, 145.905 69.451 C 143.134 68.018, 142.842 68.067, 140.567 70.342 C 139.076 71.833, 137.896 74.509, 137.467 77.374 C 137.085 79.918, 136.327 82, 135.783 82 C 134.621 82, 125.413 73.329, 112.454 60.033 C 104.677 52.054, 102.991 50.763, 101.723 51.815 C 99.209 53.901, 95.806 63.050, 95.246 69.226 C 94.955 72.433, 94.307 75.310, 93.806 75.620 C 91.903 76.796, 81.801 70.625, 74.565 63.867 C 70.424 60, 64.064 53.272, 60.431 48.918 C 56.799 44.563, 53.428 41, 52.940 41 C 52.452 41, 49.775 44.242, 46.993 48.204 M 262.599 84.179 C 257.855 88.873, 257.663 88.959, 256.599 86.876 C 255.145 84.029, 253.484 84.370, 253.563 87.500 C 253.597 88.875, 253.709 93.375, 253.813 97.500 C 253.960 103.417, 254.317 105, 255.500 105 C 256.633 105, 257 103.778, 257 100 C 257 97.250, 257.453 95, 258.007 95 C 258.560 95, 261.702 97.731, 264.989 101.070 C 268.276 104.408, 271.424 106.856, 271.985 106.509 C 273.562 105.534, 271.331 102.146, 265.294 96.345 L 259.923 91.184 264.961 86.935 C 267.733 84.599, 270 81.857, 270 80.843 C 270 77.975, 267.924 78.911, 262.599 84.179 M 274.845 81.621 C 271.251 83.113, 271.177 83.258, 270.488 90.122 C 269.894 96.031, 270.058 97.406, 271.548 99.053 C 273.680 101.409, 275.812 101.520, 278.794 99.432 C 281.707 97.391, 280.725 95.905, 276.961 96.658 C 274.451 97.160, 274 96.938, 274 95.203 C 274 93.749, 275.016 92.820, 277.500 92 C 279.477 91.348, 281 90.177, 281 89.311 C 281 88.100, 280.264 87.915, 277.500 88.434 C 272.147 89.438, 272.868 86.414, 278.564 83.973 C 281.074 82.897, 282.848 81.563, 282.505 81.008 C 281.650 79.625, 279.176 79.822, 274.845 81.621 M 287.008 80.974 C 285.820 81.725, 285.770 82.170, 286.758 83.158 C 287.502 83.902, 288 87.106, 288 91.141 C 288 97.796, 289.320 100.649, 291.117 97.878 C 291.609 97.120, 291.718 93.389, 291.360 89.587 C 290.769 83.304, 290.867 82.735, 292.437 83.337 C 293.386 83.702, 294.791 84, 295.559 84 C 296.326 84, 297.680 85.108, 298.567 86.462 C 299.921 88.529, 299.989 89.505, 298.987 92.539 C 297.472 97.130, 292.936 99.991, 287.167 99.996 C 281.136 100.001, 282.164 102.403, 288.369 102.806 C 291.790 103.029, 294 102.545, 296.434 101.041 C 301.891 97.668, 304.561 89.786, 301.920 84.850 C 299.902 81.080, 290.646 78.674, 287.008 80.974 M 229.690 92.750 C 229.455 93.162, 228.688 95.300, 227.987 97.500 C 226.372 102.561, 221.867 109.202, 218.592 111.348 C 217.205 112.257, 214.499 113, 212.578 113 C 209.785 113, 208.526 112.299, 206.293 109.500 C 203.125 105.530, 201.423 105.093, 200.497 108.011 C 199.673 110.605, 194.624 113.207, 191.184 112.810 C 189.264 112.588, 188.093 111.575, 187.070 109.250 C 186.283 107.463, 185.045 106, 184.320 106 C 182.154 106, 182.820 109.632, 185.589 112.923 C 188.912 116.872, 194.075 117.117, 199.298 113.572 C 202.426 111.450, 203.031 111.333, 204.115 112.638 C 208.253 117.624, 215.676 118.010, 221.533 113.543 C 226.471 109.776, 234.397 92, 231.138 92 C 230.577 92, 229.926 92.338, 229.690 92.750 M 138.356 95.750 C 137.981 97.263, 136.606 100.123, 135.299 102.107 C 131.690 107.587, 126 109.342, 126 104.976 C 126 101.891, 123.909 101.587, 121.639 104.341 C 117.109 109.838, 109.192 110.095, 102.122 104.974 C 99.948 103.399, 97.876 101.186, 97.518 100.055 C 96.954 98.280, 94 97.016, 94 98.550 C 94 100.019, 97.126 104.788, 99.661 107.186 C 105.066 112.301, 113.651 113.545, 120.008 110.136 C 123.061 108.498, 123.746 108.443, 125.636 109.681 C 129.927 112.493, 135.601 108.809, 139.935 100.396 C 141.914 96.556, 141.903 93, 139.912 93 C 139.431 93, 138.731 94.237, 138.356 95.750 M 102 119.420 C 102 121.674, 111.611 124.331, 119.494 124.256 C 127.479 124.180, 132 122.793, 132 120.418 C 132 119.234, 131.520 119, 130.250 119.564 C 126.513 121.225, 112.178 121.249, 107.344 119.602 C 101.669 117.668, 102 117.679, 102 119.420 M 217.876 121.003 C 213.337 123.402, 202.694 124.562, 197.748 123.196 C 193.378 121.989, 191.572 123.451, 194.597 125.748 C 197.599 128.028, 213.011 126.779, 218.829 123.785 C 223.288 121.490, 225.427 118.958, 222.833 119.044 C 222.100 119.069, 219.869 119.950, 217.876 121.003"
        stroke="none" fill="#0f0704" fill-rule="evenodd" />
</svg>